<?xml version="1.0" encoding="UTF-8" standalone="no"?>
<!-- Created with Inkscape (http://www.inkscape.org/) -->

<svg
   xmlns:dc="http://purl.org/dc/elements/1.1/"
   xmlns:cc="http://creativecommons.org/ns#"
   xmlns:rdf="http://www.w3.org/1999/02/22-rdf-syntax-ns#"
   xmlns:svg="http://www.w3.org/2000/svg"
   xmlns="http://www.w3.org/2000/svg"
   xmlns:sodipodi="http://sodipodi.sourceforge.net/DTD/sodipodi-0.dtd"
   xmlns:inkscape="http://www.inkscape.org/namespaces/inkscape"
   height="210mm"
   width="297mm"
   viewBox="0 0 1052.3622 744.09448"
   id="svg2"
   version="1.1"
   inkscape:version="0.91 r13725"
   sodipodi:docname="notf_logo.svg"
   inkscape:export-filename="/home/clemens/notf_logo.png"
   inkscape:export-xdpi="100"
   inkscape:export-ydpi="100">
  <defs
     id="defs8" />
  <sodipodi:namedview
     pagecolor="#d1dfe5"
     bordercolor="#666666"
     borderopacity="1"
     objecttolerance="10"
     gridtolerance="10"
     guidetolerance="10"
     inkscape:pageopacity="1"
     inkscape:pageshadow="2"
     inkscape:window-width="1920"
     inkscape:window-height="1056"
     id="namedview6"
     showgrid="false"
     fit-margin-top="5"
     fit-margin-left="5"
     fit-margin-right="5"
     fit-margin-bottom="5"
     inkscape:zoom="0.89702955"
     inkscape:cx="503.12468"
     inkscape:cy="385.2356"
     inkscape:window-x="0"
     inkscape:window-y="24"
     inkscape:window-maximized="1"
     inkscape:current-layer="svg2"
     inkscape:showpageshadow="false"
     showborder="true"
     units="mm"
     inkscape:snap-page="false" />
  <metadata
     id="metadata4">
    <rdf:RDF>
      <cc:Work
         rdf:about="">
        <dc:format>image/svg+xml</dc:format>
        <dc:type
           rdf:resource="http://purl.org/dc/dcmitype/StillImage" />
        <dc:title></dc:title>
      </cc:Work>
    </rdf:RDF>
  </metadata>
  <rect
     style="opacity:1;fill:#ffffff;fill-opacity:1;stroke:#000000;stroke-width:6.95312548;stroke-opacity:1"
     id="rect3300"
     width="646.03699"
     height="389.15546"
     x="166.64284"
     y="254.83736"
     transform="matrix(0.99387955,-0.11046919,0.11046919,0.99387955,0,0)" />
  <path
     inkscape:connector-curvature="0"
     id="path3204"
     style="font-style:normal;font-variant:normal;font-weight:normal;font-stretch:normal;font-size:medium;line-height:125%;font-family:Bevan;-inkscape-font-specification:Bevan;letter-spacing:0px;word-spacing:0px;opacity:1;fill:#000000;fill-opacity:1;stroke:none;stroke-width:1px;stroke-linecap:butt;stroke-linejoin:miter;stroke-opacity:1"
     d="m 336.51653,349.43531 -80.26615,0 0,44.33877 10.83518,0 0,65.01126 -11.83311,0 0,43.48354 93.81011,0 0,-43.48354 -12.54603,0 0,-45.47928 q 0,-6.70077 3.99192,-11.40552 4.13446,-4.70482 10.83516,-4.70482 5.13256,0 8.98185,4.41964 3.84936,4.41964 3.84936,11.2629 l 0,89.39062 81.83436,0 0,-43.48354 -11.40544,0 0,-53.4631 q 0,-58.73836 -47.04765,-58.73836 -16.82312,0 -30.08197,6.55816 -13.11631,6.4156 -20.95759,18.53397 l 0,-22.2407 z" />
  <path
     inkscape:connector-curvature="0"
     id="path3208"
     style="font-style:normal;font-variant:normal;font-weight:normal;font-stretch:normal;font-size:medium;line-height:125%;font-family:Bevan;-inkscape-font-specification:Bevan;letter-spacing:0px;word-spacing:0px;opacity:1;fill:#000000;fill-opacity:1;stroke:none;stroke-width:1px;stroke-linecap:butt;stroke-linejoin:miter;stroke-opacity:1"
     d="m 616.37168,434.82096 q -8.94385,1.98749 -15.33222,1.98749 -7.95007,0 -10.93136,-4.54291 -2.98135,-4.68483 -2.98135,-10.22145 l 0.14191,-45.85491 21.57875,0 0,-44.15122 -21.57875,0 0,-47.41653 -69.1372,14.90635 0,32.51018 -14.62246,0 0,44.15122 15.33222,0 -0.1419,53.37903 q -0.28382,57.21213 53.94695,57.21213 11.35721,0 22.28857,-2.41345 10.93136,-2.27138 16.1841,-4.68482 l 5.25267,-2.4135 0,-42.44761 z" />
  <path
     inkscape:connector-curvature="0"
     id="path3210"
     style="font-style:normal;font-variant:normal;font-weight:normal;font-stretch:normal;font-size:medium;line-height:125%;font-family:Bevan;-inkscape-font-specification:Bevan;letter-spacing:0px;word-spacing:0px;opacity:1;fill:#000000;fill-opacity:1;stroke:none;stroke-width:1px;stroke-linecap:butt;stroke-linejoin:miter;stroke-opacity:1"
     d="m 636.23335,356.03502 c 0.19064,12.55069 0.28525,18.96858 0.28525,19.25391 l -11.83763,0 0,52.98942 11.98026,0 0,99.21265 69.31407,0 0,-99.21265 24.53087,0 0,-52.98942 -25.52924,0 c -0.57051,-10.26876 0.38056,-17.39992 2.85242,-21.39327 2.56725,-4.08852 6.84583,-6.13279 12.83593,-6.13279 3.61306,0 8.17691,0.6178 13.69168,1.85412 l 0,-44.35527 c -1.33114,-0.47517 -3.28022,-1.09368 -5.84747,-1.85404 -2.47213,-0.76072 -7.55889,-1.75902 -15.26048,-2.99512 -7.60655,-1.23604 -15.21296,-1.85405 -22.81944,-1.85405 -36.13084,0 -54.19622,19.15879 -54.19622,57.47651 z"
     sodipodi:nodetypes="ccccccccccccsccccscc" />
  <g
     id="g3321"
     transform="matrix(7.2322753,0,0,7.2322753,-2071.8718,-4086.3665)">
    <path
       sodipodi:nodetypes="sssssccsccs"
       d="m 341.73009,629.15013 c 0,-3.38541 1.04818,-6.0026 3.14454,-7.85156 2.09635,-1.84896 4.96094,-2.77344 8.59375,-2.77344 3.65885,0 6.53646,0.92448 8.63281,2.77344 2.09635,1.84896 3.14453,4.46615 3.14453,7.85156 0,2.27865 -0.5013,4.25781 -1.50391,5.9375 -0.98958,1.67969 -2.36979,2.94922 -4.14062,3.8086 -1.75781,0.85937 -3.79557,1.28906 -6.11328,1.28906 -2.31771,0 -4.36199,-0.42969 -6.13282,-1.28906 -1.75781,-0.85938 -3.13801,-2.12891 -4.14062,-3.8086 -0.98959,-1.67969 -1.48438,-3.65885 -1.48438,-5.9375 z"
       style="font-style:normal;font-variant:normal;font-weight:normal;font-stretch:normal;font-size:medium;line-height:125%;font-family:Bevan;-inkscape-font-specification:Bevan;letter-spacing:0px;word-spacing:0px;fill:#ffffff;fill-opacity:1;stroke:none;stroke-width:1px;stroke-linecap:butt;stroke-linejoin:miter;stroke-opacity:1"
       id="path3206"
       inkscape:connector-curvature="0" />
    <path
       sodipodi:nodetypes="cssccsscsccc"
       d="m 350.81213,629.28776 c 0,3.26823 0.89193,4.90235 2.67578,4.90235 1.78385,0 2.67578,-1.63412 2.67578,-4.90235 0,-0.66406 -0.0326,-1.22395 -0.0977,-1.67968 -0.0521,-0.46875 -0.16274,-0.94401 -0.33203,-1.42578 -0.16927,-0.48177 -0.44271,-0.84636 -0.82031,-1.09375 -0.37761,-0.2474 -0.85287,-0.3711 -1.42578,-0.3711 -0.57292,0 -1.04818,0.1237 -1.42578,0.3711 -0.37761,0.24739 -0.65105,0.61198 -0.82032,1.09375 -0.16927,0.48177 -0.28645,0.95703 -0.35156,1.42578 -0.0521,0.45573 -0.0781,1.01562 -0.0781,1.67968 z"
       style="font-style:normal;font-variant:normal;font-weight:normal;font-stretch:normal;font-size:medium;line-height:125%;font-family:Bevan;-inkscape-font-specification:Bevan;letter-spacing:0px;word-spacing:0px;fill:#000000;fill-opacity:1;stroke:none;stroke-width:1px;stroke-linecap:butt;stroke-linejoin:miter;stroke-opacity:1"
       id="path3206-0"
       inkscape:connector-curvature="0" />
  </g>
  <text
     xml:space="preserve"
     style="font-style:normal;font-weight:normal;font-size:286.68270874px;line-height:125%;font-family:sans-serif;letter-spacing:0px;word-spacing:0px;opacity:1;fill:#000000;fill-opacity:1;stroke:none;stroke-width:1px;stroke-linecap:butt;stroke-linejoin:miter;stroke-opacity:1"
     x="271.3053"
     y="535.86096"
     id="text3296"
     sodipodi:linespacing="125%"><tspan
       sodipodi:role="line"
       id="tspan3298"
       x="271.3053"
       y="535.86096"
       style="font-style:normal;font-variant:normal;font-weight:normal;font-stretch:normal;font-size:29.56415558px;font-family:Bevan;-inkscape-font-specification:Bevan">User Interface Engine</tspan></text>
  <text
     xml:space="preserve"
     style="font-style:normal;font-variant:normal;font-weight:bold;font-stretch:normal;font-size:16.98828506px;line-height:125%;font-family:'DejaVu Sans Mono';-inkscape-font-specification:'DejaVu Sans Mono Bold';letter-spacing:0px;word-spacing:0px;fill:#000000;fill-opacity:1;stroke:none;stroke-width:1px;stroke-linecap:butt;stroke-linejoin:miter;stroke-opacity:1"
     x="259.57974"
     y="-819.78363"
     id="text3325"
     sodipodi:linespacing="125%"
     transform="matrix(0.11103105,0.99381694,-0.99381694,0.11103105,0,0)"
     inkscape:transform-center-x="-11.251053"
     inkscape:transform-center-y="47.859815"><tspan
       sodipodi:role="line"
       id="tspan3327"
       x="259.57974"
       y="-819.78363">notf.rocks</tspan></text>
</svg>
